<?xml version="1.0" encoding="UTF-8" standalone="no"?>
<!DOCTYPE svg PUBLIC "-//W3C//DTD SVG 1.1//EN" "http://www.w3.org/Graphics/SVG/1.1/DTD/svg11.dtd">
<svg width="100%" height="100%" viewBox="0 0 375 375" version="1.1" xmlns="http://www.w3.org/2000/svg" xmlns:xlink="http://www.w3.org/1999/xlink" xml:space="preserve" xmlns:serif="http://www.serif.com/" style="fill-rule:evenodd;clip-rule:evenodd;stroke-linejoin:round;stroke-miterlimit:2;">
    <g transform="matrix(0.75,0,0,0.75,0,0)">
        <g id="COPY-ICON" serif:id="COPY ICON" transform="matrix(0.47259,0,0,0.490677,-1584.59,0)">
            <rect x="3353" y="0" width="1058" height="1019" style="fill:none;"/>
            <g>
                <g transform="matrix(2.5392,0,0,2.038,2972.12,285.32)">
                    <path d="M302.86,-20C316.12,-20 328.838,-13.679 338.215,-2.426L402.022,74.142C411.399,85.394 416.667,100.656 416.667,116.569L416.667,260C416.667,275.913 411.399,291.174 402.022,302.426C392.645,313.679 379.927,320 366.667,320L233.333,320C205.719,320 183.333,293.137 183.333,260L183.333,40C183.333,6.863 205.719,-20 233.333,-20L302.86,-20ZM302.86,20L233.333,20C224.129,20 216.667,28.954 216.667,40L216.667,260C216.667,271.046 224.129,280 233.333,280L366.667,280C371.087,280 375.326,277.893 378.452,274.142C381.577,270.391 383.333,265.304 383.333,260L383.333,116.568C383.333,111.264 381.577,106.177 378.452,102.426L314.645,25.858C311.519,22.107 307.28,20 302.86,20Z" style="fill:rgb(232,232,232);fill-opacity:0.5;"/>
                </g>
                <g transform="matrix(2.5392,0,0,2.038,3268.36,122.28)">
                    <path d="M302.86,-20C316.12,-20 328.838,-13.679 338.215,-2.426L402.022,74.142C411.399,85.394 416.667,100.656 416.667,116.569L416.667,260C416.667,275.913 411.399,291.174 402.022,302.426C392.645,313.679 379.927,320 366.667,320L233.333,320C205.719,320 183.333,293.137 183.333,260L183.333,40C183.333,6.863 205.719,-20 233.333,-20L302.86,-20Z" style="fill:rgb(232,232,232);"/>
                </g>
            </g>
        </g>
    </g>
</svg>
