<?xml version="1.0" encoding="UTF-8" standalone="no"?><!DOCTYPE svg PUBLIC "-//W3C//DTD SVG 1.1//EN" "http://www.w3.org/Graphics/SVG/1.1/DTD/svg11.dtd"><svg width="100%" height="100%" viewBox="0 0 2084 2084" version="1.1" xmlns="http://www.w3.org/2000/svg" xmlns:xlink="http://www.w3.org/1999/xlink" xml:space="preserve" xmlns:serif="http://www.serif.com/" style="fill-rule:evenodd;clip-rule:evenodd;stroke-linejoin:round;stroke-miterlimit:2;"><rect id="PROFILE-PHOTO--DARK-MODE-" serif:id="PROFILE PHOTO [DARK MODE]" x="0" y="0" width="2083.33" height="2083.33" style="fill:none;"/><clipPath id="_clip1"><rect x="0" y="0" width="2083.33" height="2083.33"/></clipPath><g clip-path="url(#_clip1)"><g opacity="0.8"><path d="M1228.91,18.15c9.254,1.819 18.46,3.77 27.617,5.851c36.638,8.328 72.489,18.739 107.421,31.103l0,913.767c-0.485,80.396 -30.48,153.872 -79.703,210.112c-8.662,9.898 -17.921,19.262 -27.718,28.036c-32.682,29.266 -71.365,51.968 -113.971,66.018l114.238,65.845c40.833,-23.682 77.414,-53.893 108.313,-89.197l80.861,70.701c-25.462,29.093 -54.011,55.418 -85.135,78.462l99.947,57.608c23.549,-20.183 45.627,-42.034 66.049,-65.369l80.862,70.702c-15.558,17.776 -31.939,34.814 -49.083,51.054l96.572,55.663c11.46,-11.685 22.589,-23.695 33.372,-36.016l80.862,70.702c-6.061,6.924 -12.219,13.762 -18.471,20.51c-25.35,27.359 -52.262,53.252 -80.594,77.535l-787.379,-453.833c-1.272,-0.728 -2.54,-1.459 -3.806,-2.194c-66.195,-38.757 -117.369,-100.454 -142.562,-174.164c-4.22,-12.348 -7.711,-25.032 -10.422,-38.002c-4.43,-21.198 -6.775,-43.159 -6.811,-65.659c-0.035,-22.673 2.276,-44.806 6.705,-66.168l-114.136,66.025c0,0.104 0,0.208 0,0.311c0.076,48.357 8.154,94.846 22.977,138.215l-101.686,34.723c-12.342,-36.111 -20.943,-73.951 -25.339,-113.059l-99.948,57.818c5.729,30.812 13.652,60.856 23.6,89.963l-101.686,34.723c-7.606,-22.252 -14.197,-44.974 -19.717,-68.109l-96.531,55.841c4.415,15.852 9.274,31.521 14.561,46.991l-101.687,34.722c-2.982,-8.727 -5.844,-17.51 -8.582,-26.348c-10.96,-35.375 -19.942,-71.617 -26.818,-108.598l787.972,-455.825c1.046,-0.609 2.095,-1.216 3.145,-1.82c46.892,-26.773 101.145,-42.113 158.957,-42.204c21.526,-0.034 42.565,2.048 62.921,6.049c12.963,2.549 25.649,5.875 38.006,9.929c42.785,14.037 81.636,36.796 114.444,66.174l-0,-132.016c-40.225,-23.29 -84.563,-40.246 -131.644,-49.501l20.805,-105.414c38.581,7.584 75.688,19.305 110.839,34.681l-0,-115.457c-29.112,-10.304 -59.18,-18.573 -90.033,-24.638l20.805,-105.414c23.485,4.616 46.579,10.327 69.228,17.078l-0,-111.502c-15.967,-4.116 -32.112,-7.785 -48.422,-10.991l20.805,-105.414Zm-25.526,1090.13c33.155,-37.882 53.224,-87.493 53.139,-141.741c-0.163,-104.235 -74.684,-191.116 -173.251,-210.491c-13.571,-2.668 -27.597,-4.056 -41.948,-4.033c-38.541,0.06 -74.71,10.287 -105.971,28.136c-0.7,0.403 -1.399,0.807 -2.097,1.213c-63.767,37.37 -106.58,106.671 -106.456,185.85c0.038,24.178 4.077,47.422 11.488,69.107c28.94,84.672 109.304,145.565 203.711,145.417c64.338,-0.101 122.064,-28.531 161.385,-73.458Z" style="fill:#e8e8e8;"/><path d="M74.789,968.397c-0.001,-1.025 -0.001,-2.05 0,-3.075l0,-60.117l700.87,-405.004c78.206,-44.707 168.713,-70.325 265.164,-70.477c21.979,-0.034 43.654,1.255 64.949,3.792c52.994,6.314 103.635,20.358 150.76,40.972l-0,120.234c-63.413,-36.716 -137.05,-57.69 -215.54,-57.567c-77.531,0.122 -150.261,20.813 -213.032,56.897c-0.386,0.223 -0.772,0.446 -1.158,0.669c-0.173,0.1 -0.345,0.199 -0.517,0.299l-749.58,433.152c-1.24,-19.77 -1.884,-39.701 -1.916,-59.775Z" style="fill:url(#_Linear2);"/><path d="M616.852,219.738l-542.063,313.237l-0.001,-124.324l489.356,-282.53c128.251,-73.053 274.817,-117.612 431.067,-125.021c14.893,-0.706 29.875,-1.075 44.937,-1.099c74.365,-0.117 146.794,8.183 216.384,24l-0,110.554c-69.107,-17.816 -141.563,-27.24 -216.215,-27.123c-153.993,0.242 -298.517,41.057 -423.465,112.306Z" style="fill:url(#_Linear3);"/><path d="M74.789,781.124l-0,-124.078l594.112,-343.314c109.57,-62.715 236.408,-98.657 371.585,-98.869c4.692,-0.008 9.374,0.028 14.046,0.107c70.068,1.176 137.822,11.958 202,31.087l-0,112.974c-67.525,-23.9 -140.197,-36.856 -215.878,-36.737c-115.942,0.182 -224.728,31.03 -318.688,84.852c-0.867,0.497 -1.733,0.995 -2.597,1.496c-0.544,0.315 -1.087,0.63 -1.63,0.947l-642.95,371.535Z" style="fill:url(#_Linear4);"/><path d="M1901.11,346.624l107.433,62.027l-0.001,556.709c0.001,0.506 0.001,1.012 0.001,1.518c0,0.524 -0,1.047 -0.001,1.571c-0.249,159.055 -38.999,309.181 -107.433,441.533c-40.341,78.021 -90.998,149.865 -150.163,213.72l-95.763,-55.196c151.806,-154.787 245.559,-366.676 245.927,-600.222c0.001,-0.918 0.001,-1.837 0,-2.755l-0,-618.905Z" style="fill:url(#_Linear5);"/><path d="M1686.26,222.577l107.431,62.025l0,682.276l-0.003,0c0.004,141.609 -39.23,274.155 -107.428,387.329c-35.273,58.537 -78.295,111.891 -127.642,158.636l-97.828,-56.387c138.001,-118.278 225.473,-293.826 225.467,-489.578l0.003,0l0,-744.301Z" style="fill:url(#_Linear6);"/><path d="M1519.79,126.466l59.034,34.084l-0,805.485c0,0.281 0,0.562 0,0.843c0,0.292 0,0.584 -0,0.876c-0.189,120.472 -40.137,231.724 -107.428,321.301c-31.339,41.719 -68.609,78.736 -110.555,109.793l-104.039,-59.966c128.279,-74.399 214.596,-213.233 214.591,-372.004l0.003,0l0,-866.229c16.401,8.159 32.537,16.77 48.394,25.817Z" style="fill:url(#_Linear7);"/><path d="M1148.9,2021.42l-107.234,61.912l-486.671,-280.979c-131.989,-77.105 -244.116,-184.594 -326.746,-312.859c-46.85,-72.725 -84.217,-152.129 -110.345,-236.462l95.708,-55.365c60.57,217.487 204.596,400.298 395.284,511.754c2.484,1.452 4.976,2.892 7.476,4.319l532.528,307.68Z" style="fill:url(#_Linear8);"/><path d="M1363.72,1897.4l-107.411,62.014l-588.057,-339.763c-1.327,-0.764 -2.653,-1.53 -3.978,-2.298c-117.311,-68.259 -214.53,-167.344 -280.509,-286.144c-32.63,-58.752 -57.619,-122.327 -73.619,-189.379l97.803,-56.577c34.871,187.566 151.058,346.656 310.5,439.327c0.961,0.557 1.923,1.113 2.886,1.668l642.385,371.152Z" style="fill:url(#_Linear9);"/><path d="M1471.13,1835.38l-699.358,-404.07c-99.439,-57.952 -178.634,-146.927 -224.261,-253.641c-20.101,-47.015 -33.687,-97.473 -39.618,-150.238l104.048,-60.19c0,0.104 0,0.208 0,0.311c0.25,158.73 86.714,297.338 214.977,371.55l278.885,161.132l470.779,272.003c-18.685,12.442 -37.827,24.251 -57.395,35.398l-48.057,27.745Z" style="fill:url(#_Linear10);"/></g></g><defs><linearGradient id="_Linear2" x1="0" y1="0" x2="1" y2="0" gradientUnits="userSpaceOnUse" gradientTransform="matrix(751.98,-436.507,436.507,751.98,74.5213,905.205)"><stop offset="0" style="stop-color:#e8e8e8;stop-opacity:0"/><stop offset="0.48" style="stop-color:#e8e8e8;stop-opacity:0.26"/><stop offset="1" style="stop-color:#e8e8e8;stop-opacity:1"/></linearGradient><linearGradient id="_Linear3" x1="0" y1="0" x2="1" y2="0" gradientUnits="userSpaceOnUse" gradientTransform="matrix(752.247,-435.557,435.557,752.247,74.5213,409.589)"><stop offset="0" style="stop-color:#e8e8e8;stop-opacity:0"/><stop offset="0.48" style="stop-color:#e8e8e8;stop-opacity:0.26"/><stop offset="1" style="stop-color:#e8e8e8;stop-opacity:1"/></linearGradient><linearGradient id="_Linear4" x1="0" y1="0" x2="1" y2="0" gradientUnits="userSpaceOnUse" gradientTransform="matrix(751.98,-434.328,434.328,751.98,74.5213,657.046)"><stop offset="0" style="stop-color:#e8e8e8;stop-opacity:0"/><stop offset="0.48" style="stop-color:#e8e8e8;stop-opacity:0.26"/><stop offset="1" style="stop-color:#e8e8e8;stop-opacity:1"/></linearGradient><linearGradient id="_Linear5" x1="0" y1="0" x2="1" y2="0" gradientUnits="userSpaceOnUse" gradientTransform="matrix(5.31776e-14,868.455,-868.455,5.31776e-14,2008.55,408.367)"><stop offset="0" style="stop-color:#e8e8e8;stop-opacity:0"/><stop offset="0.48" style="stop-color:#e8e8e8;stop-opacity:0.26"/><stop offset="1" style="stop-color:#e8e8e8;stop-opacity:1"/></linearGradient><linearGradient id="_Linear6" x1="0" y1="0" x2="1" y2="0" gradientUnits="userSpaceOnUse" gradientTransform="matrix(5.3163e-14,868.218,-868.218,5.3163e-14,1793.95,284.756)"><stop offset="0" style="stop-color:#e8e8e8;stop-opacity:0"/><stop offset="0.48" style="stop-color:#e8e8e8;stop-opacity:0.26"/><stop offset="1" style="stop-color:#e8e8e8;stop-opacity:1"/></linearGradient><linearGradient id="_Linear7" x1="0" y1="0" x2="1" y2="0" gradientUnits="userSpaceOnUse" gradientTransform="matrix(5.31659e-14,868.265,-868.265,5.31659e-14,1579.09,160.704)"><stop offset="0" style="stop-color:#e8e8e8;stop-opacity:0"/><stop offset="0.48" style="stop-color:#e8e8e8;stop-opacity:0.26"/><stop offset="1" style="stop-color:#e8e8e8;stop-opacity:1"/></linearGradient><linearGradient id="_Linear8" x1="0" y1="0" x2="1" y2="0" gradientUnits="userSpaceOnUse" gradientTransform="matrix(-751.414,-433.829,433.829,-751.414,1041.67,2083.33)"><stop offset="0" style="stop-color:#e8e8e8;stop-opacity:0"/><stop offset="0.48" style="stop-color:#e8e8e8;stop-opacity:0.26"/><stop offset="1" style="stop-color:#e8e8e8;stop-opacity:1"/></linearGradient><linearGradient id="_Linear9" x1="0" y1="0" x2="1" y2="0" gradientUnits="userSpaceOnUse" gradientTransform="matrix(-751.932,-434.445,434.445,-751.932,1256.94,1959.77)"><stop offset="0" style="stop-color:#e8e8e8;stop-opacity:0"/><stop offset="0.48" style="stop-color:#e8e8e8;stop-opacity:0.26"/><stop offset="1" style="stop-color:#e8e8e8;stop-opacity:1"/></linearGradient><linearGradient id="_Linear10" x1="0" y1="0" x2="1" y2="0" gradientUnits="userSpaceOnUse" gradientTransform="matrix(-750.482,-433.608,433.608,-750.482,1470.15,1834.81)"><stop offset="0" style="stop-color:#e8e8e8;stop-opacity:0"/><stop offset="0.48" style="stop-color:#e8e8e8;stop-opacity:0.26"/><stop offset="1" style="stop-color:#e8e8e8;stop-opacity:1"/></linearGradient></defs></svg>