<?xml version="1.0" encoding="UTF-8" standalone="no"?>
<!DOCTYPE svg PUBLIC "-//W3C//DTD SVG 1.1//EN" "http://www.w3.org/Graphics/SVG/1.1/DTD/svg11.dtd">
<svg width="100%" height="100%" viewBox="0 0 500 500" version="1.1" xmlns="http://www.w3.org/2000/svg" xmlns:xlink="http://www.w3.org/1999/xlink" xml:space="preserve" xmlns:serif="http://www.serif.com/" style="fill-rule:evenodd;clip-rule:evenodd;stroke-linejoin:round;stroke-miterlimit:2;">
    <g transform="matrix(1,0,0,1,-5313.82,-2100.1)">
        <g id="PROFILE-PHOTO--DARK-MODE-" serif:id="PROFILE PHOTO [DARK MODE]" transform="matrix(1,0,0,1,4012.41,-437.05)">
            <rect x="1301.42" y="2537.15" width="500" height="500" style="fill:none;"/>
            <clipPath id="_clip1">
                <rect x="1301.42" y="2537.15" width="500" height="500"/>
            </clipPath>
            <g clip-path="url(#_clip1)">
                <g transform="matrix(0.515668,0,0,0.515668,1293.58,1862.81)">
                    <path d="M587.148,1316.15C591.455,1317 595.74,1317.91 600.001,1318.88C617.053,1322.75 633.739,1327.6 649.997,1333.35L649.997,1758.63C649.771,1796.05 635.811,1830.25 612.902,1856.42C608.87,1861.03 604.561,1865.39 600.001,1869.47C584.791,1883.09 566.787,1893.66 546.958,1900.2L600.126,1930.84C619.13,1919.82 636.155,1905.76 650.536,1889.33L688.17,1922.24C676.32,1935.78 663.033,1948.03 648.547,1958.75L695.064,1985.56C706.024,1976.17 716.299,1966 725.805,1955.14L763.439,1988.05C756.198,1996.32 748.574,2004.25 740.595,2011.81L785.541,2037.71C790.875,2032.28 796.054,2026.69 801.073,2020.95L838.707,2053.86C835.886,2057.08 833.02,2060.26 830.11,2063.4C818.312,2076.14 805.787,2088.19 792.601,2099.49L426.142,1888.27C425.551,1887.93 424.96,1887.59 424.371,1887.25C393.563,1869.21 369.746,1840.49 358.02,1806.19C356.056,1800.44 354.432,1794.54 353.17,1788.5C351.108,1778.64 350.017,1768.41 350,1757.94C349.984,1747.39 351.059,1737.09 353.121,1727.15L300,1757.88C300,1757.92 300,1757.97 300,1758.02C300.036,1780.53 303.795,1802.16 310.694,1822.35L263.368,1838.51C257.623,1821.7 253.62,1804.09 251.574,1785.89L205.057,1812.8C207.723,1827.14 211.411,1841.12 216.041,1854.67L168.715,1870.83C165.175,1860.47 162.107,1849.9 159.538,1839.13L114.611,1865.12C116.666,1872.5 118.927,1879.79 121.388,1886.99L74.062,1903.15C72.673,1899.09 71.341,1895 70.067,1890.89C64.966,1874.42 60.786,1857.56 57.586,1840.35L424.32,1628.2C424.807,1627.91 425.295,1627.63 425.784,1627.35C447.608,1614.89 472.858,1607.75 499.764,1607.71C509.783,1607.69 519.575,1608.66 529.049,1610.52C535.082,1611.71 540.986,1613.26 546.738,1615.14C566.65,1621.68 584.732,1632.27 600.001,1645.94L600.001,1584.5C581.28,1573.66 560.645,1565.77 538.732,1561.46L548.416,1512.4C566.372,1515.93 583.642,1521.38 600.001,1528.54L600.001,1474.81C586.453,1470.01 572.458,1466.16 558.099,1463.34L567.782,1414.28C578.712,1416.43 589.46,1419.08 600.001,1422.23L600.001,1370.33C592.57,1368.41 585.056,1366.71 577.465,1365.22L587.148,1316.15ZM575.268,1823.52C590.699,1805.89 600.04,1782.8 600,1757.55C599.924,1709.04 565.241,1668.6 519.366,1659.58C513.05,1658.34 506.522,1657.7 499.843,1657.71C481.905,1657.74 465.072,1662.5 450.522,1670.8C450.197,1670.99 449.871,1671.18 449.546,1671.37C419.868,1688.76 399.942,1721.01 400,1757.86C400.018,1769.12 401.897,1779.94 405.347,1790.03C418.816,1829.44 456.219,1857.78 500.157,1857.71C530.101,1857.66 556.967,1844.43 575.268,1823.52Z" style="fill:rgb(232,232,232);"/>
                </g>
                <g transform="matrix(0.515668,0,0,0.515668,1293.58,2511.37)">
                    <path d="M50,500.707C50,500.23 50,499.752 50,499.276L50,471.296L376.196,282.801C412.594,261.994 454.718,250.071 499.607,250C509.837,249.984 519.925,250.584 529.836,251.765C554.5,254.703 578.069,261.24 600.001,270.834L600.001,326.793C570.488,309.704 536.217,299.943 499.686,300C463.602,300.057 429.752,309.687 400.538,326.481C400.358,326.585 400.178,326.688 399.998,326.792C399.918,326.839 399.838,326.885 399.758,326.931L50.892,528.527C50.315,519.326 50.015,510.05 50,500.707Z" style="fill:url(#_Linear2);"/>
                </g>
                <g transform="matrix(0.515668,0,0,0.515668,1293.58,2511.37)">
                    <path d="M302.285,152.269L50,298.055L50,240.192L277.754,108.699C337.444,74.699 405.658,53.96 478.379,50.512C485.31,50.183 492.283,50.012 499.293,50.001C533.904,49.946 567.613,53.809 600.001,61.171L600.001,112.624C567.838,104.332 534.116,99.946 499.372,100C427.701,100.113 360.438,119.109 302.285,152.269Z" style="fill:url(#_Linear3);"/>
                </g>
                <g transform="matrix(0.515668,0,0,0.515668,1293.58,2511.37)">
                    <path d="M50,413.547L50,355.799L326.509,196.016C377.505,166.827 436.537,150.099 499.45,150C501.634,149.997 503.813,150.014 505.988,150.05C538.598,150.597 570.132,155.616 600.001,164.519L600.001,217.098C568.575,205.975 534.752,199.945 499.529,200C445.567,200.085 394.937,214.443 351.206,239.492C350.803,239.723 350.4,239.955 349.998,240.188C349.745,240.335 349.492,240.482 349.239,240.629L50,413.547Z" style="fill:url(#_Linear4);"/>
                </g>
                <g transform="matrix(0.515668,0,0,0.515668,1293.58,2511.37)">
                    <path d="M899.999,211.324L950,240.192L949.999,499.293C950,499.529 950,499.764 950,500C950,500.244 950,500.487 949.999,500.731C949.884,574.757 931.849,644.629 899.999,706.227C881.223,742.539 857.647,775.977 830.11,805.696L785.541,780.007C856.194,707.966 899.828,609.35 899.999,500.654C899.999,500.227 899.999,499.799 899.999,499.372L899.999,211.324Z" style="fill:url(#_Linear5);"/>
                </g>
                <g transform="matrix(0.515668,0,0,0.515668,1293.58,2511.37)">
                    <path d="M800.001,153.591L850.001,182.458L850.001,500L850,500C850.002,565.907 831.741,627.596 800.001,680.269C783.585,707.513 763.562,732.344 740.595,754.1L695.064,727.857C759.292,672.809 800.003,591.106 800,500L800.001,500L800.001,153.591Z" style="fill:url(#_Linear6);"/>
                </g>
                <g transform="matrix(0.515668,0,0,0.515668,1293.58,2511.37)">
                    <path d="M722.525,108.859L750,124.722L750,499.607C750,499.738 750,499.869 750,500C750,500.136 750,500.272 750,500.408C749.912,556.477 731.319,608.255 700.001,649.946C685.416,669.362 668.07,686.591 648.547,701.045L600.126,673.136C659.829,638.51 700.002,573.894 700,500L700.001,500L700.001,96.843C707.634,100.641 715.145,104.649 722.525,108.859Z" style="fill:url(#_Linear7);"/>
                </g>
                <g transform="matrix(0.515668,0,0,0.515668,1293.58,2511.37)">
                    <path d="M549.909,990.8L500,1019.62L273.496,888.843C212.066,852.957 159.881,802.93 121.424,743.234C99.619,709.386 82.228,672.431 70.067,633.181L114.611,607.413C142.801,708.635 209.833,793.718 298.582,845.591C299.738,846.267 300.898,846.937 302.062,847.602L549.909,990.8Z" style="fill:url(#_Linear8);"/>
                </g>
                <g transform="matrix(0.515668,0,0,0.515668,1293.58,2511.37)">
                    <path d="M649.888,933.078L599.897,961.94L326.206,803.809C325.589,803.453 324.971,803.097 324.355,802.739C269.756,770.971 224.509,724.855 193.802,669.564C178.615,642.219 166.985,612.631 159.538,581.424L205.057,555.092C221.287,642.388 275.362,716.431 349.569,759.562C350.016,759.821 350.464,760.08 350.912,760.338L649.888,933.078Z" style="fill:url(#_Linear9);"/>
                </g>
                <g transform="matrix(0.515668,0,0,0.515668,1293.58,2511.37)">
                    <path d="M699.88,904.214L374.388,716.154C328.107,689.182 291.249,647.772 270.013,598.106C260.658,576.224 254.335,552.74 251.574,528.183L300,500.169C300,500.218 300,500.266 300,500.314C300.116,574.189 340.358,638.7 400.054,673.239L529.851,748.232L748.958,874.827C740.262,880.617 731.354,886.114 722.246,891.301L699.88,904.214Z" style="fill:url(#_Linear10);"/>
                </g>
            </g>
        </g>
    </g>
    <defs>
        <linearGradient id="_Linear2" x1="0" y1="0" x2="1" y2="0" gradientUnits="userSpaceOnUse" gradientTransform="matrix(349.983,-203.157,203.157,349.983,49.8757,471.296)"><stop offset="0" style="stop-color:rgb(232,232,232);stop-opacity:0"/><stop offset="0.48" style="stop-color:rgb(232,232,232);stop-opacity:0.26"/><stop offset="1" style="stop-color:rgb(232,232,232);stop-opacity:1"/></linearGradient>
        <linearGradient id="_Linear3" x1="0" y1="0" x2="1" y2="0" gradientUnits="userSpaceOnUse" gradientTransform="matrix(350.107,-202.715,202.715,350.107,49.8757,240.629)"><stop offset="0" style="stop-color:rgb(232,232,232);stop-opacity:0"/><stop offset="0.48" style="stop-color:rgb(232,232,232);stop-opacity:0.26"/><stop offset="1" style="stop-color:rgb(232,232,232);stop-opacity:1"/></linearGradient>
        <linearGradient id="_Linear4" x1="0" y1="0" x2="1" y2="0" gradientUnits="userSpaceOnUse" gradientTransform="matrix(349.983,-202.143,202.143,349.983,49.8757,355.799)"><stop offset="0" style="stop-color:rgb(232,232,232);stop-opacity:0"/><stop offset="0.48" style="stop-color:rgb(232,232,232);stop-opacity:0.26"/><stop offset="1" style="stop-color:rgb(232,232,232);stop-opacity:1"/></linearGradient>
        <linearGradient id="_Linear5" x1="0" y1="0" x2="1" y2="0" gradientUnits="userSpaceOnUse" gradientTransform="matrix(2.47496e-14,404.192,-404.192,2.47496e-14,950,240.06)"><stop offset="0" style="stop-color:rgb(232,232,232);stop-opacity:0"/><stop offset="0.48" style="stop-color:rgb(232,232,232);stop-opacity:0.26"/><stop offset="1" style="stop-color:rgb(232,232,232);stop-opacity:1"/></linearGradient>
        <linearGradient id="_Linear6" x1="0" y1="0" x2="1" y2="0" gradientUnits="userSpaceOnUse" gradientTransform="matrix(2.47429e-14,404.082,-404.082,2.47429e-14,850.126,182.53)"><stop offset="0" style="stop-color:rgb(232,232,232);stop-opacity:0"/><stop offset="0.48" style="stop-color:rgb(232,232,232);stop-opacity:0.26"/><stop offset="1" style="stop-color:rgb(232,232,232);stop-opacity:1"/></linearGradient>
        <linearGradient id="_Linear7" x1="0" y1="0" x2="1" y2="0" gradientUnits="userSpaceOnUse" gradientTransform="matrix(2.47442e-14,404.104,-404.104,2.47442e-14,750.124,124.794)"><stop offset="0" style="stop-color:rgb(232,232,232);stop-opacity:0"/><stop offset="0.48" style="stop-color:rgb(232,232,232);stop-opacity:0.26"/><stop offset="1" style="stop-color:rgb(232,232,232);stop-opacity:1"/></linearGradient>
        <linearGradient id="_Linear8" x1="0" y1="0" x2="1" y2="0" gradientUnits="userSpaceOnUse" gradientTransform="matrix(-349.719,-201.911,201.911,-349.719,500,1019.62)"><stop offset="0" style="stop-color:rgb(232,232,232);stop-opacity:0"/><stop offset="0.48" style="stop-color:rgb(232,232,232);stop-opacity:0.26"/><stop offset="1" style="stop-color:rgb(232,232,232);stop-opacity:1"/></linearGradient>
        <linearGradient id="_Linear9" x1="0" y1="0" x2="1" y2="0" gradientUnits="userSpaceOnUse" gradientTransform="matrix(-349.961,-202.197,202.197,-349.961,600.19,962.109)"><stop offset="0" style="stop-color:rgb(232,232,232);stop-opacity:0"/><stop offset="0.48" style="stop-color:rgb(232,232,232);stop-opacity:0.26"/><stop offset="1" style="stop-color:rgb(232,232,232);stop-opacity:1"/></linearGradient>
        <linearGradient id="_Linear10" x1="0" y1="0" x2="1" y2="0" gradientUnits="userSpaceOnUse" gradientTransform="matrix(-349.286,-201.808,201.808,-349.286,699.423,903.951)"><stop offset="0" style="stop-color:rgb(232,232,232);stop-opacity:0"/><stop offset="0.48" style="stop-color:rgb(232,232,232);stop-opacity:0.26"/><stop offset="1" style="stop-color:rgb(232,232,232);stop-opacity:1"/></linearGradient>
    </defs>
</svg>
